#!OML:ASF F:\VICON\USERDATA\INSTALL\Justin_Nancy\Justin_Nancy.ASF
:FULLY-SPECIFIED
:DEGREES
1
root -9.1957 17.3141 -32.0958 -1.47231 -0.453879 -0.504975
lowerback 7.22236 -4.22281 -6.4033
upperback -2.22625 -5.93274 6.57047
thorax -5.05011 -2.64197 11.3269
lowerneck -7.29897 1.03277 -12.7257
upperneck 17.3574 2.37312 4.61872
head 6.27923 0.689524 3.75765
rclavicle -8.97016e-014 2.70347e-014
rhumerus 0 0 0
rradius 0
rwrist 0
rhand 0 0
rfingers 0
rthumb 0 0
lclavicle -8.97016e-014 2.70347e-014
lhumerus -32.1867 15.2001 84.0953
lradius 28.7448
lwrist -8.87154
lhand -15.9407 27.153
lfingers 7.12502
lthumb 10.2574 56.8829
rfemur -19.8115 3.83939 24.7759
rtibia 33.1646
rfoot -8.49166 -4.84952
rtoes 6.86615
lfemur -8.71157 -2.16053 -19.5888
ltibia 64.7961
lfoot 11.5178 -11.7782
ltoes -12.2611
2
root -9.2446 17.3284 -31.8597 -0.902398 -3.75071 -0.597058
lowerback 7.2708 -3.40152 -8.00447
upperback -2.79875 -4.94745 7.49909
thorax -5.73122 -2.00445 13.3404
lowerneck -6.97783 1.41997 -13.1977
upperneck 17.9958 3.04768 3.89633
head 6.38474 0.899827 3.65263
rclavicle -5.71506e-014 3.18055e-015
rhumerus 0 0 0
rradius 0
rwrist 0
rhand 0 0
rfingers 0
rthumb 0 0
lclavicle -5.71506e-014 3.18055e-015
lhumerus -34.21 16.8152 84.4934
lradius 28.7934
lwrist -9.6275
lhand -16.0811 26.4868
lfingers 7.12502
lthumb 10.1219 56.2233
rfemur -19.5045 6.2203 25.2128
rtibia 32.9939
rfoot -8.93357 -4.11803
rtoes 7.77456
lfemur -10.6413 1.28861 -19.2954
ltibia 65.7014
lfoot 8.19291 -11.0885
ltoes -12.9212
3
root -9.27775 17.3558 -31.6259 -0.405161 -6.96191 -0.809035
lowerback 6.51879 -2.36227 -8.34567
upperback -2.76765 -3.52775 7.66342
thorax -5.6448 -1.28034 13.5666
lowerneck -6.8408 1.35995 -13.388
upperneck 18.4385 2.95792 3.99547
head 6.50705 0.832064 3.71843
rclavicle 2.44505e-014 3.33958e-014
rhumerus 0 0 0
rradius 0
rwrist 0
rhand 0 0
rfingers 0
rthumb 0 0
lclavicle 2.44505e-014 3.33958e-014
lhumerus -34.9905 16.7279 84.7006
lradius 28.5884
lwrist -10.2879
lhand -16.2384 25.1977
lfingers 7.12502
lthumb 9.97015 54.9415
rfemur -18.8458 8.09116 25.6757
rtibia 32.3075
rfoot -9.07507 -2.89148
rtoes 6.36476
lfemur -12.4064 4.56803 -19.0175
ltibia 66.1482
lfoot 7.31324 -10.4093
ltoes -7.16833
4
root -9.2848 17.3992 -31.3825 -0.111162 -8.80621 -1.02703
lowerback 5.89389 -1.2661 -7.61897
upperback -2.44166 -1.97032 7.15824
thorax -5.41758 -0.564044 12.3395
lowerneck -7.51236 0.781482 -12.8337
upperneck 18.7976 2.10537 4.48203
head 6.80729 0.489273 3.74912
rclavicle 3.12589e-014 -2.38542e-014
rhumerus 0 0 0
rradius 0
rwrist 0
rhand 0 0
rfingers 0
rthumb 0 0
lclavicle 3.12589e-014 -2.38542e-014
lhumerus -34.5482 14.6062 85.2359
lradius 28.2291
lwrist -10.451
lhand -16.3568 25.0944
lfingers 7.12502
lthumb 9.85597 54.8438
rfemur -17.9293 8.89176 25.9649
rtibia 31.7187
rfoot -9.31127 -2.00887
rtoes 4.67237
lfemur -14.1448 6.37514 -18.9834
ltibia 66.497
lfoot 5.36861 -8.77194
ltoes -6.67042
5
root -9.22837 17.4416 -31.0841 -1.241 -2.65825 -1.08079
lowerback 6.8909 -2.52323 -5.37201
upperback -1.9294 -3.55983 5.9924
thorax -5.19633 -1.49389 9.8356
lowerneck -9.27772 -0.256602 -11.405
upperneck 19.0115 0.656639 4.68812
head 7.31504 -0.0821242 3.49342
rclavicle -6.36111e-015 -3.18055e-015
rhumerus 0 0 0
rradius 0
rwrist 0
rhand 0 0
rfingers 0
rthumb 0 0
lclavicle -6.36111e-015 -3.18055e-015
lhumerus -33.2082 11.1611 85.9522
lradius 27.6979
lwrist -9.49207
lhand -15.7287 26.4336
lfingers 7.12502
lthumb 10.4619 56.1533
rfemur -15.0105 4.64885 25.8971
rtibia 31.0947
rfoot -10.4 -4.31669
rtoes 4.29179
lfemur -15.3192 0.600169 -19.3835
ltibia 66.7152
lfoot 2.81115 -6.81001
ltoes -10.9483
6
root -9.23451 17.4511 -30.8292 -1.33316 -2.54285 -1.36668
lowerback 7.76811 -4.39041 -7.19372
upperback -3.22092 -6.18962 8.08711
thorax -6.13598 -2.60382 13.7214
lowerneck -6.38183 2.00188 -14.373
upperneck 18.685 3.89965 3.96164
head 6.41235 1.20407 3.92173
rclavicle -8.84592e-015 -1.27222e-014
rhumerus 0 0 0
rradius 0
rwrist 0
rhand 0 0
rfingers 0
rthumb 0 0
lclavicle -8.84592e-015 -1.27222e-014
lhumerus -37.973 17.4502 85.811
lradius 28.5501
lwrist -8.05831
lhand -15.0769 27.7348
lfingers 7.12502
lthumb 11.0906 57.4218
rfemur -13.6071 4.58219 26.3447
rtibia 30.5666
rfoot -10.7597 -4.74298
rtoes 3.41378
lfemur -16.9076 0.707289 -19.1894
ltibia 66.8659
lfoot 0.490781 -5.27058
ltoes -12.2261
7
root -9.23629 17.4567 -30.5804 -1.31019 -2.90172 -1.54353
lowerback 6.74088 -3.16467 -5.4068
upperback -2.26047 -4.38863 6.67685
thorax -5.23909 -1.88574 10.6989
lowerneck -7.88432 0.683527 -12.6283
upperneck 18.6765 1.93793 4.78957
head 6.84176 0.456393 3.8071
rclavicle -4.14963e-014 5.24792e-014
rhumerus -37.7786 -6.31088 -74.0132
rradius 25.1635
rwrist 10.2439
rhand -15.5492 14.9838
rfingers 7.12502
rthumb 10.635 -14.7271
lclavicle -4.14963e-014 5.24792e-014
lhumerus -35.9627 12.4879 86.5664
lradius 27.8754
lwrist -7.33587
lhand -13.5417 28.3894
lfingers 7.12502
lthumb 12.571 57.9912
rfemur -12.4679 4.68959 26.636
rtibia 30.1969
rfoot -11.2065 -4.8315
rtoes 1.84866
lfemur -18.5034 1.11549 -19.1909
ltibia 66.866
lfoot -1.24004 -3.63728
ltoes -11.592
8
root -9.30068 17.4526 -30.3811 -0.0118834 -9.50497 -2.1565
lowerback 4.97455 -0.146886 -4.73017
upperback -1.41467 -0.277715 5.92606
thorax -4.2338 0.0687991 8.98584
lowerneck -9.98482 -0.318926 -11.1737
upperneck 18.8925 0.49007 5.36047
head 7.40621 -0.0743729 3.66872
rclavicle 4.12478e-015 3.65764e-014
rhumerus -36.975 -14.6329 -71.1626
rradius 22.4994
rwrist 15.5816
rhand -14.3431 29.5919
rfingers 7.12502
rthumb 11.7983 -0.0557981
lclavicle 4.12478e-015 3.65764e-014
lhumerus -34.1052 8.7836 86.9129
lradius 27.0612
lwrist -7.30485
lhand -12.2603 29.1026
lfingers 7.12502
lthumb 13.8062 58.6245
rfemur -13.0132 9.07362 27.4611
rtibia 30.0406
rfoot -11.3629 -2.80286
rtoes 0.940626
lfemur -20.7043 7.5097 -18.4269
ltibia 66.7894
lfoot -3.23399 -1.85732
ltoes -10.9966
